<svg xmlns="http://www.w3.org/2000/svg" xmlns:xlink="http://www.w3.org/1999/xlink" viewBox="0,0,256,256" width="24px" height="24px"><g fill="#ffffff" fill-rule="nonzero" stroke="none" stroke-width="1" stroke-linecap="butt" stroke-linejoin="miter" stroke-miterlimit="10" stroke-dasharray="" stroke-dashoffset="0" font-family="none" font-weight="none" font-size="none" text-anchor="none" style="mix-blend-mode: normal"><g transform="scale(10.66667,10.66667)"><path d="M12,2c-5.5,0 -10,4.5 -10,10c0,5.5 4.5,10 10,10c5.5,0 10,-4.5 10,-10c0,-5.5 -4.5,-10 -10,-10zM16.057,16.406c-0.188,0 -0.282,-0.094 -0.47,-0.188c-1.411,-0.847 -3.198,-1.317 -5.079,-1.317c-1.035,0 -2.163,0.188 -3.104,0.376c-0.188,0 -0.376,0.094 -0.47,0.094c-0.376,0 -0.658,-0.282 -0.658,-0.658c0,-0.376 0.188,-0.658 0.564,-0.658c1.223,-0.282 2.446,-0.47 3.763,-0.47c2.163,0 4.139,0.564 5.832,1.505c0.188,0.188 0.376,0.282 0.376,0.658c-0.19,0.47 -0.472,0.658 -0.754,0.658zM17.091,13.773c-0.188,0 -0.376,-0.094 -0.564,-0.188c-1.599,-1.035 -3.857,-1.599 -6.302,-1.599c-1.223,0 -2.352,0.188 -3.198,0.376c-0.188,0.094 -0.282,0.094 -0.47,0.094c-0.47,0 -0.753,-0.376 -0.753,-0.753c0,-0.47 0.188,-0.658 0.658,-0.847c1.129,-0.282 2.258,-0.564 3.857,-0.564c2.634,0 5.079,0.658 7.149,1.881c0.282,0.188 0.47,0.47 0.47,0.753c-0.094,0.47 -0.376,0.847 -0.847,0.847zM18.314,10.762c-0.188,0 -0.282,-0.094 -0.564,-0.188c-1.881,-1.035 -4.609,-1.693 -7.243,-1.693c-1.317,0 -2.728,0.188 -3.951,0.47c-0.188,0 -0.282,0.094 -0.564,0.094c-0.564,0.095 -0.941,-0.376 -0.941,-0.94c0,-0.564 0.282,-0.847 0.658,-0.941c1.506,-0.376 3.105,-0.564 4.798,-0.564c2.916,0 5.926,0.658 8.278,1.881c0.282,0.188 0.564,0.47 0.564,0.941c-0.094,0.564 -0.471,0.94 -1.035,0.94z"></path></g></g></svg>